<?xml version="1.0" encoding="utf-8"?>
<!-- Generator: Adobe Illustrator 19.0.0, SVG Export Plug-In . SVG Version: 6.00 Build 0)  -->
<!DOCTYPE svg PUBLIC "-//W3C//DTD SVG 1.1//EN" "http://www.w3.org/Graphics/SVG/1.1/DTD/svg11.dtd">
<svg version="1.1" id="Ebene_1" xmlns="http://www.w3.org/2000/svg" xmlns:xlink="http://www.w3.org/1999/xlink" x="0px" y="0px"
	 viewBox="0 0 262.02 262.02" enable-background="new 0 0 262.02 262.02" xml:space="preserve">
<g>
	<path fill="#FFCC00" d="M262.02,131.01c0,72.356-58.654,131.01-131.01,131.01C58.654,262.02,0,203.366,0,131.01
		C0,58.655,58.654,0,131.009,0C203.365,0,262.02,58.655,262.02,131.01L262.02,131.01z"/>
	<path fill="#FFFFFF" d="M191.953,200.494v-13.545V61.525H71.249v125.129c0,0,0,13.84,8.84,13.84
		C105.362,200.494,191.953,200.494,191.953,200.494L191.953,200.494z"/>
</g>
<g>
	<path fill="#0B0A07" d="M174.772,91.394H93.098c-1.016,0-1.839-0.822-1.839-1.837c0-1.015,0.823-1.838,1.839-1.838h81.674
		c1.016,0,1.839,0.823,1.839,1.838C176.611,90.573,175.788,91.394,174.772,91.394L174.772,91.394z"/>
	<path fill="#0B0A07" d="M174.438,109.161H92.764c-1.016,0-1.839-0.821-1.839-1.837c0-1.015,0.823-1.838,1.839-1.838h81.674
		c1.016,0,1.839,0.823,1.839,1.838C176.277,108.34,175.454,109.161,174.438,109.161L174.438,109.161z"/>
</g>
<path fill="#0B0A07" d="M103.958,145.592c10.613,0,19.076,9.186,17.876,20.04c-0.912,8.249-7.581,14.918-15.83,15.827
	c-10.852,1.197-20.032-7.268-20.032-17.878C85.972,153.647,94.022,145.592,103.958,145.592"/>
<path fill="#0B0A07" d="M92.049,184.484c0,0,8.102,3.422,12.042,3.422c3.941,0,11.775-3.422,11.775-3.422v41.975
	c0,0-6.17-11.65-11.994-11.65c-5.827,0-11.825,11.65-11.825,11.65L92.049,184.484L92.049,184.484z"/>
<path fill="#0B0A07" d="M174.605,131.546H92.931c-1.016,0-1.839-0.822-1.839-1.837c0-1.015,0.823-1.838,1.839-1.838h81.674
	c1.016,0,1.839,0.823,1.839,1.838C176.444,130.725,175.621,131.546,174.605,131.546L174.605,131.546z"/>
</svg>
