<?xml version="1.0" encoding="utf-8"?>
<!-- Generator: Adobe Illustrator 16.0.4, SVG Export Plug-In . SVG Version: 6.00 Build 0)  -->
<!DOCTYPE svg PUBLIC "-//W3C//DTD SVG 1.1//EN" "http://www.w3.org/Graphics/SVG/1.1/DTD/svg11.dtd">
<svg version="1.1" id="Ebene_1" xmlns="http://www.w3.org/2000/svg" xmlns:xlink="http://www.w3.org/1999/xlink" x="0px" y="0px"
	 width="344.163px" height="344.163px" viewBox="-14.75 -25.896 344.163 344.163"
	 enable-background="new -14.75 -25.896 344.163 344.163" xml:space="preserve">
<g id="ALT" display="none">
	<circle display="inline" fill="#F0D700" cx="158.165" cy="147.71" r="172.082"/>
	<circle display="inline" fill="#FFFFFF" cx="157.473" cy="147.018" r="139.715"/>
	<path display="inline" d="M70.665,208.616v13.162c0,6.814,5.794,12.342,12.942,12.342h62.139c7.148,0,12.94-5.523,12.94-12.342
		v-13.162H70.665z"/>
	<g display="inline">
		<path d="M70.665,120.593H57.506c-6.818,0-12.344,5.793-12.344,12.944v62.136c0,7.149,5.525,12.943,12.344,12.943h13.159V120.593z"
			/>
		<path d="M226.108,75.346h-38.186h-4.355l-11.309,11.107h11.309v2.471c0,12.944,10.502,23.441,23.447,23.441
			c12.952,0,23.447-10.499,23.447-23.441V75.345L226.108,75.346L226.108,75.346z"/>
		<polygon points="230.463,67.941 182.546,67.941 172.26,52.727 230.463,52.727 		"/>
		<path d="M248.301,120.593h-0.407h-1.844l-58.977,74.862h48.064v13.157h-60.41v25.507h60.41h25.508v-25.505v-12.941v-47.29v-14.846
			C260.646,126.386,255.124,120.593,248.301,120.593z"/>
		<path d="M227.995,120.593H172.26h-5.706v0.028c-2.544-0.048-5.145,1.069-7.337,3.843c-16.354,20.673-32.706,41.352-49.06,62.03
			c-8.779,11.104,6.826,26.932,15.708,15.701c15.463-19.553,30.932-39.109,46.395-58.663v47.812L227.995,120.593z"/>
	</g>
</g>
<g id="Ebene_4">
	<circle fill="#FFCC00" cx="157.332" cy="146.185" r="172.082"/>
</g>
<g id="Ebene_6">
	<polygon fill="#FFFFFF" points="220.078,123.76 234.767,123.76 235.679,201.192 174.733,195.37 174.733,181.319 195.4,130.124 	"/>
	<polyline fill="#FFFFFF" points="183.103,80.924 183.122,81.065 183.935,86.948 222.087,86.948 222.087,80.924 187.491,76.108 
		183.103,80.924 	"/>
</g>
<g id="Ebene_5">
	<path d="M78.493,201.192v11.884c0,6.153,5.231,11.143,11.685,11.143h56.103c6.453,0,11.683-4.987,11.683-11.143v-11.884H78.493z"/>
	<g>
		<path d="M92.081,123.76H81.374c-5.546,0-10.042,4.713-10.042,10.53v50.552c0,5.816,4.496,10.529,10.042,10.529h10.707V123.76z"/>
		<path d="M218.544,86.948h-31.066h-3.544l-9.2,9.037h9.2v2.011c0,10.531,8.544,19.07,19.077,19.07
			c10.536,0,19.075-8.541,19.075-19.07V86.948H218.544z"/>
		<polygon points="222.087,80.924 183.103,80.924 174.733,68.546 222.087,68.546 		"/>
		<path d="M236.599,123.76h-0.332h-1.5l-47.98,60.905h39.104v10.705h-51.155v20.75h51.155h20.752v-20.748v-10.529v-38.474v-12.08
			C246.642,128.473,242.149,123.76,236.599,123.76z"/>
		<path d="M220.078,123.76h-45.345h-4.641v0.022c-2.07-0.038-4.186,0.87-5.97,3.126c-13.306,16.819-26.609,33.643-39.913,50.466
			c-7.143,9.033,5.553,21.911,12.78,12.775c12.58-15.908,25.165-31.819,37.745-47.728v38.898L220.078,123.76z"/>
	</g>
</g>
<g id="Hilfslinien">
</g>
</svg>
