<?xml version="1.0" encoding="iso-8859-1"?>
<!-- Generator: Adobe Illustrator 19.1.0, SVG Export Plug-In . SVG Version: 6.00 Build 0)  -->
<svg version="1.1" id="Ebene_1" xmlns="http://www.w3.org/2000/svg" xmlns:xlink="http://www.w3.org/1999/xlink" x="0px" y="0px"
	 viewBox="-90.917 54.464 344.164 344.164" style="enable-background:new -90.917 54.464 344.164 344.164;" xml:space="preserve">
<g id="Ebene_4">
	<circle style="fill:#FFCC00;" cx="81.165" cy="226.546" r="172.082"/>
</g>
<g id="Ebene_5">
</g>
<g id="Ebene_6">
	<g>
		<g>
			<path style="fill:#181716;" d="M66.413,258.786c0,6.186-5.015,11.2-11.202,11.2c-6.185,0-11.201-5.015-11.201-11.2
				c0-6.187,5.016-11.2,11.201-11.2C61.397,247.586,66.413,252.6,66.413,258.786L66.413,258.786L66.413,258.786z M60.812,258.786
				c0-3.094-2.508-5.6-5.601-5.6c-3.092,0-5.6,2.507-5.6,5.6c0,3.092,2.508,5.6,5.6,5.6
				C58.304,264.387,60.812,261.878,60.812,258.786L60.812,258.786L60.812,258.786z M45.564,247.586h-25.1
				c-0.994,0-1.8,0.805-1.8,1.799v5.461c0,0.994,0.807,1.801,1.8,1.801h20.119C41.108,253.043,42.928,249.859,45.564,247.586
				L45.564,247.586L45.564,247.586z M125.018,258.786c0,6.186-5.015,11.2-11.2,11.2c-6.188,0-11.201-5.015-11.201-11.2
				c0-6.187,5.014-11.2,11.201-11.2C120.003,247.586,125.018,252.6,125.018,258.786L125.018,258.786L125.018,258.786z
				 M119.418,258.786c0-3.094-2.508-5.6-5.6-5.6c-3.094,0-5.602,2.507-5.602,5.6c0,3.092,2.508,5.6,5.602,5.6
				C116.909,264.387,119.418,261.878,119.418,258.786L119.418,258.786L119.418,258.786z M144.821,249.385v5.461
				c0,0.994-0.809,1.801-1.801,1.801h-14.574c-1.044-7.149-7.195-12.663-14.628-12.663c-7.435,0-13.588,5.513-14.63,12.663H69.841
				c-0.526-3.604-2.345-6.789-4.982-9.061h27.827v-51.492c0-1.988,1.613-3.601,3.602-3.601h16.995c4.785,0,9.258,2.377,11.936,6.343
				l10.957,16.227c1.605,2.38,2.465,5.187,2.465,8.058v24.465h4.382C144.013,247.586,144.821,248.392,144.821,249.385
				L144.821,249.385L144.821,249.385z M126.559,215.48l-8.761-12.449c-0.338-0.479-0.886-0.764-1.472-0.764h-13.667
				c-0.994,0-1.799,0.805-1.799,1.8v12.45c0,0.994,0.805,1.799,1.799,1.799h22.428C126.544,218.315,127.397,216.672,126.559,215.48
				L126.559,215.48L126.559,215.48z"/>
			<path style="fill:#181716;" d="M23.091,240.398v-53.674c0-2.983,2.417-5.4,5.4-5.4h53.647c2.982,0,5.4,2.417,5.4,5.4v53.674
				c0,0.994-0.806,1.8-1.8,1.8H24.891C23.897,242.199,23.091,241.392,23.091,240.398L23.091,240.398L23.091,240.398z"/>
		</g>
		<g>
			<path style="fill:#FFFFFF;" d="M-14.511,233.758h-15.681c3.614,56.638,49.476,101.786,106.418,104.269v-15.662
				C27.928,319.915-10.944,281.749-14.511,233.758z"/>
			<path style="fill:#FFFFFF;" d="M176.839,219.335h15.684c-3.52-55.127-47.057-99.368-101.881-103.979v15.714
				C136.817,135.598,173.384,172.855,176.839,219.335z"/>
			<path style="fill:#FFFFFF;" d="M90.644,322.021v15.714c54.82-4.61,98.362-48.857,101.872-103.984h-15.685
				C173.384,280.233,136.817,317.492,90.644,322.021z"/>
			<path style="fill:#FFFFFF;" d="M76.226,130.726v-15.661c-56.942,2.477-102.802,47.63-106.418,104.262h15.682
				C-10.942,171.341,27.928,133.176,76.226,130.726z"/>
		</g>
	</g>
</g>
<g id="Hilfslinien">
</g>
</svg>
