<?xml version="1.0" encoding="iso-8859-1"?>
<!-- Generator: Adobe Illustrator 19.1.0, SVG Export Plug-In . SVG Version: 6.00 Build 0)  -->
<svg version="1.1" id="Ebene_1" xmlns="http://www.w3.org/2000/svg" xmlns:xlink="http://www.w3.org/1999/xlink" x="0px" y="0px"
	 viewBox="-13.545 -24 497.59 497.59" style="enable-background:new -13.545 -24 497.59 497.59;" xml:space="preserve">
<g id="Ebene_4">
	<circle style="fill:#FFCC00;" cx="235.25" cy="224.795" r="248.795"/>
</g>
<g id="Ebene_5">
	<circle style="fill:#FFFFFF;" cx="235.25" cy="224.796" r="143.333"/>
</g>
<g id="Ebene_6">
	<g>
		<g>
			<polygon points="331.994,294.424 142.064,294.424 172.963,158.428 301.094,158.428 			"/>
		</g>
		<g>
			<path d="M201.512,163.019c-0.031-0.837-0.61-20.653,11.227-33.331c6.007-6.434,14.012-9.855,23.792-10.171
				c9.56-0.311,17.493,2.59,23.607,8.613c12.653,12.465,12.431,33.888,12.415,34.794l-9.998-0.173
				c0.002-0.171,0.136-18.102-9.461-27.523c-4.141-4.065-9.453-5.947-16.241-5.716c-7.125,0.229-12.622,2.52-16.806,7
				c-9.033,9.675-8.549,25.979-8.543,26.143L201.512,163.019z"/>
		</g>
		<g style="enable-background:new    ;">
			<path style="fill:#FFFFFF;" d="M219.548,185.766c0,0,0.76-0.359,2.479-0.359c1.68,0,2.52,0.359,2.52,0.359v26.476
				c0,0-0.8,0.36-2.52,0.36c-1.6,0-2.6-0.36-2.6-0.36v-15.317c0-1.959,0.08-3.639,0.2-4.999c-1.88,1.52-4.119,2.439-6.279,2.96
				c-0.96-0.96-1.48-2.56-1.2-4.159C215.469,189.846,217.628,188.366,219.548,185.766z"/>
			<path style="fill:#FFFFFF;" d="M230.789,186.447c0,0,3.239-1.44,7.479-1.44c5.039,0,9.119,2.12,9.119,7.559
				c0,5.159-2.88,6.919-7.639,9.799c-2.2,1.359-5.119,2.64-5.119,5.119c0,0.2,0.04,0.4,0.08,0.6h11.878
				c0.36,0.641,0.479,1.44,0.479,2.24s-0.16,1.6-0.479,2.279h-16.598c0,0-0.24-1.279-0.24-2.68c0-6.239,4.079-8.759,7.719-11.198
				c3.52-2.399,4.719-3.52,4.719-6.039c0-2.439-1.88-3.52-4.719-3.52c-2.72,0-5.239,0.88-5.239,0.88
				C231.189,189.206,230.629,187.926,230.789,186.447z"/>
			<path style="fill:#FFFFFF;" d="M251.389,202.843c0,0-0.28-0.72-0.28-1.839c0-1.12,0.28-1.84,0.28-1.84h5.559v-5.56
				c0,0,0.721-0.279,1.84-0.279c1.12,0,1.84,0.279,1.84,0.279v5.56h5.56c0,0,0.279,0.72,0.279,1.84c0,1.119-0.279,1.839-0.279,1.839
				h-5.56v5.56c0,0-0.72,0.28-1.84,0.28c-1.119,0-1.84-0.28-1.84-0.28v-5.56H251.389z"/>
		</g>
		<g style="enable-background:new    ;">
			<path style="fill:#FFFFFF;" d="M204.988,252.803c0,3.399,1.24,4.159,3.799,4.159c0.64,0,1.399-0.12,1.399-0.12s0.36,0.88,0.36,2
				c0,1.08-0.28,1.8-0.28,1.8c-0.959,0.28-2.04,0.36-2.959,0.36c-5.119,0-7.359-2.68-7.359-7.959v-9.758h-3.039
				c0,0-0.28-0.72-0.28-1.84c0-1.239,0.28-1.879,0.28-1.879h3.039v-3.439c1.32-0.8,3.2-1.16,5.04-1v4.439h4.719
				c0,0,0.28,0.68,0.28,1.839c0,1.08-0.28,1.88-0.28,1.88h-4.719V252.803z"/>
			<path style="fill:#FFFFFF;" d="M222.347,239.166c5.679,0,9.199,3,9.199,10.917c0,7.919-3.56,10.919-9.199,10.919
				c-5.639,0-9.198-3-9.198-10.919C213.149,242.166,216.708,239.166,222.347,239.166z M222.347,243.005
				c-2.439,0-4.039,1.399-4.039,7.078c0,5.68,1.6,7.079,4.039,7.079c2.44,0,4-1.399,4-7.079
				C226.347,244.405,224.787,243.005,222.347,243.005z"/>
			<path style="fill:#FFFFFF;" d="M252.705,260.281c0,0-0.88,0.32-2.52,0.32c-1.759,0-2.52-0.32-2.52-0.32v-14.157
				c0-1.72-0.92-2.88-3.199-2.88c-1.32,0-2.56,0.561-3.52,1.48v15.556c0,0-0.88,0.32-2.52,0.32c-1.76,0-2.52-0.32-2.52-0.32v-20.396
				c0,0,0.76-0.319,2.52-0.319c1.64,0,2.52,0.319,2.52,0.319v1.2c1.4-1.28,3.279-1.92,5.479-1.92c4.12,0,6.279,2.479,6.279,6.079
				V260.281z"/>
			<path style="fill:#FFFFFF;" d="M264.707,239.166c4.279,0,5.879,1.16,5.879,1.16c0,1.279-0.4,2.72-1.28,3.56
				c0,0-1.88-0.641-4.079-0.641c-2.319,0-3.439,0.8-3.439,2.24c0,1.72,2.56,1.999,5.079,2.879c2.399,0.84,4.759,2.24,4.759,5.999
				c0,4.239-2.599,6.64-7.838,6.64c-4.359,0-6.919-1.521-6.919-1.521c0-1.479,0.439-2.839,1.359-3.719c0,0,2.6,0.96,5.319,0.96
				c2.159,0,3.119-0.761,3.119-2.24c0-1.72-1.959-2.159-4.119-2.8c-2.64-0.8-5.559-1.918-5.559-6.038
				C256.988,241.765,259.468,239.166,264.707,239.166z"/>
		</g>
	</g>
</g>
<g id="Hilfslinien">
</g>
</svg>
