<?xml version="1.0" encoding="utf-8"?>
<!-- Generator: Adobe Illustrator 19.1.0, SVG Export Plug-In . SVG Version: 6.00 Build 0)  -->
<svg version="1.1" id="Ebene_1" xmlns="http://www.w3.org/2000/svg" xmlns:xlink="http://www.w3.org/1999/xlink" x="0px" y="0px"
	 viewBox="-244.9 212 344.2 344.2" style="enable-background:new -244.9 212 344.2 344.2;" xml:space="preserve">
<style type="text/css">
	.st0{fill:#FFCC00;}
	.st1{fill:#FFFFFF;}
	.st2{fill:#181716;}
</style>
<g id="Ebene_4">
	<circle class="st0" cx="-72.8" cy="384.1" r="172.1"/>
</g>
<g id="Ebene_5">
	<circle class="st1" cx="-72.8" cy="384.1" r="99.1"/>
</g>
<g id="Ebene_6">
	<path class="st2" d="M-24.6,352.9l-6.6-3.3l-9.8,19.8l-27,9.2l5.5-28l18.3-12.3l-4.1-6.1l-12.2,8.2l4.1-20.9l-7.2-1.5l-4.1,20.9
		l-8.2-12.2l-6.1,4.1l12.3,18.4l-5.5,28l-21.5-18.8l-1.5-22l-7.4,0.5l1,14.6l-16-14l-4.9,5.5l16.1,14l-14.7,1l0.5,7.4l22-1.5
		l21.4,18.8l-27,9.2l-19.8-9.7l-3.3,6.6l13.2,6.5l-20.2,6.9l2.4,7l20.2-6.9l-6.3,13.1l6.6,3.3l9.8-19.8l27-9.2l-5.5,28l-18.3,12.3
		l4.1,6.1l12.2-8.2l-4.1,20.9l7.2,1.4l4.1-20.9l8.2,12.2l6.1-4.1L-76,419.1l5.5-28l21.4,18.8l1.5,22l7.4-0.5l-1-14.6l16,14l4.8-5.5
		l-16-14.1l14.7-1l-0.5-7.4l-22,1.5l-21.4-18.7l27-9.2l19.8,9.7l3.3-6.6l-13.2-6.5l20.2-6.9l-2.4-7l-20.2,6.8L-24.6,352.9z
		 M-72.8,384.1L-72.8,384.1L-72.8,384.1L-72.8,384.1L-72.8,384.1L-72.8,384.1L-72.8,384.1z"/>
</g>
<g id="Hilfslinien">
</g>
</svg>
