<?xml version="1.0" encoding="utf-8"?>
<!-- Generator: Adobe Illustrator 16.0.4, SVG Export Plug-In . SVG Version: 6.00 Build 0)  -->
<!DOCTYPE svg PUBLIC "-//W3C//DTD SVG 1.1//EN" "http://www.w3.org/Graphics/SVG/1.1/DTD/svg11.dtd">
<svg version="1.1" id="Ebene_1" xmlns="http://www.w3.org/2000/svg" xmlns:xlink="http://www.w3.org/1999/xlink" x="0px" y="0px"
	 width="344.165px" height="344.164px" viewBox="-14.132 -24.372 344.165 344.164"
	 enable-background="new -14.132 -24.372 344.165 344.164" xml:space="preserve">
<g id="Ebene_4">
	<circle fill="#FFCC00" cx="157.95" cy="147.71" r="172.082"/>
</g>
<g id="Ebene_5">
	<circle fill="#FFFFFF" cx="157.951" cy="147.71" r="99.138"/>
</g>
<g id="Ebene_6">
	<path d="M232.96,105.313c-0.17-0.543-0.326-1.034-0.349-1.102c-0.021-0.061-0.218-0.545-0.385-0.946
		c-0.165-0.395-0.367-0.856-0.449-1.024c-0.141-0.287-0.485-0.776-0.524-0.832l-0.424-0.581c-1.785-2.322-4.535-3.654-7.543-3.654
		c-1.703,0-3.355,0.426-4.916,1.265c-0.826,0.444-1.734,0.906-2.539,1.312c-0.979,0.498-1.992,1.012-3.037,1.577
		c-15.002,8.105-29.617,18.23-44.685,30.953c-14.912,12.592-41.468,41.359-41.735,41.648c-0.274,0.299-1.009,0.432-1.369,0.258
		l-27.512-13.41c-0.219-0.107-1.432-0.64-3.801-0.64c-4.151,0-6.16,1.964-6.375,2.188l-1.396,1.451
		c-0.239,0.244-0.249,0.254-1.086,2.358c-0.091,0.227-2.165,5.582,1.352,8.905c0.72,0.681,0.937,0.896,0.953,0.913l1.782,1.801
		c0.155,0.156,1.191,1.193,1.958,1.961l9.198,9.205c0,0,13.014,13.023,20.203,20.238l2.083,2.064c0.037,0.035,0.7,0.689,1.449,1.426
		l2.204,2.285c0.805,0.84,1.528,1.606,1.697,1.797c0.383,0.426,1.271,1.086,1.687,1.375c1.156,0.803,4.76,1.002,5.232,1.002h0.586
		c1.209,0,2.946-0.205,3.952-0.465c1.484-0.386,3.348-2.572,3.612-3.043c0.184-0.326,0.777-1.351,1.318-2.275
		c0.08-0.137,8.01-13.68,12.831-21.077c11.818-18.134,25.207-34.902,39.797-49.836c8.001-8.19,24.999-22.965,25.17-23.113
		c0.807-0.7,1.693-1.463,1.975-1.694l2.01-1.665l2.846-2.188c0.923-0.702,1.768-1.327,1.979-1.472
		c0.336-0.232,2.485-2.38,2.555-3.968C233.298,107.441,233.205,106.095,232.96,105.313z"/>
</g>
<g id="Hilfslinien">
</g>
</svg>
