<?xml version="1.0" encoding="utf-8"?>
<!-- Generator: Adobe Illustrator 16.0.4, SVG Export Plug-In . SVG Version: 6.00 Build 0)  -->
<!DOCTYPE svg PUBLIC "-//W3C//DTD SVG 1.1//EN" "http://www.w3.org/Graphics/SVG/1.1/DTD/svg11.dtd">
<svg version="1.1" id="Ebene_1" xmlns="http://www.w3.org/2000/svg" xmlns:xlink="http://www.w3.org/1999/xlink" x="0px" y="0px"
	 width="107.672px" height="108.333px" viewBox="118.84 119.081 107.672 108.333"
	 enable-background="new 118.84 119.081 107.672 108.333" xml:space="preserve">
<path fill="#FFCC00" d="M226.513,173.248c0,29.916-24.104,54.167-53.837,54.167c-29.732,0-53.835-24.251-53.835-54.167
	s24.104-54.167,53.835-54.167C202.409,119.081,226.513,143.332,226.513,173.248L226.513,173.248z"/>
<path fill="#181716" d="M165.723,186.972c0,2.806-2.275,5.08-5.081,5.08c-2.805,0-5.08-2.274-5.08-5.08
	c0-2.807,2.275-5.08,5.08-5.08C163.448,181.892,165.723,184.165,165.723,186.972L165.723,186.972L165.723,186.972z M163.183,186.972
	c0-1.402-1.138-2.54-2.541-2.54c-1.403,0-2.54,1.138-2.54,2.54s1.137,2.541,2.54,2.541
	C162.045,189.513,163.183,188.374,163.183,186.972L163.183,186.972L163.183,186.972z M156.266,181.892h-11.385
	c-0.451,0-0.816,0.365-0.816,0.816v2.477c0,0.451,0.366,0.816,0.816,0.816h9.125C154.245,184.367,155.07,182.923,156.266,181.892
	L156.266,181.892L156.266,181.892z M192.306,186.972c0,2.806-2.275,5.08-5.08,5.08c-2.807,0-5.081-2.274-5.081-5.08
	c0-2.807,2.274-5.08,5.081-5.08C190.03,181.892,192.306,184.165,192.306,186.972L192.306,186.972L192.306,186.972z M189.765,186.972
	c0-1.402-1.137-2.54-2.539-2.54c-1.404,0-2.542,1.138-2.542,2.54s1.138,2.541,2.542,2.541
	C188.628,189.513,189.765,188.374,189.765,186.972L189.765,186.972L189.765,186.972z M201.288,182.708v2.478
	c0,0.45-0.367,0.816-0.816,0.816h-6.611c-0.473-3.243-3.264-5.743-6.635-5.743c-3.373,0-6.164,2.5-6.636,5.743h-13.312
	c-0.239-1.635-1.063-3.079-2.26-4.11h12.622v-23.356c0-0.901,0.732-1.633,1.635-1.633h7.708c2.171,0,4.2,1.079,5.414,2.877
	l4.97,7.36c0.729,1.08,1.119,2.353,1.119,3.655v11.097h1.986C200.921,181.892,201.288,182.257,201.288,182.708L201.288,182.708
	L201.288,182.708z M193.004,167.329l-3.974-5.647c-0.153-0.217-0.402-0.347-0.668-0.347h-6.199c-0.451,0-0.815,0.365-0.815,0.817
	v5.647c0,0.451,0.365,0.816,0.815,0.816h10.174C192.997,168.615,193.385,167.87,193.004,167.329L193.004,167.329L193.004,167.329z"
	/>
<path fill="#FFFFFF" d="M146.073,178.632v-24.347c0-1.353,1.096-2.449,2.449-2.449h24.334c1.352,0,2.45,1.096,2.45,2.449v24.347
	c0,0.451-0.367,0.816-0.817,0.816h-27.599C146.438,179.448,146.073,179.082,146.073,178.632L146.073,178.632L146.073,178.632z"/>
</svg>
