<?xml version="1.0" encoding="utf-8"?>
<!-- Generator: Adobe Illustrator 16.0.4, SVG Export Plug-In . SVG Version: 6.00 Build 0)  -->
<!DOCTYPE svg PUBLIC "-//W3C//DTD SVG 1.1//EN" "http://www.w3.org/Graphics/SVG/1.1/DTD/svg11.dtd">
<svg version="1.1" id="Ebene_1" xmlns="http://www.w3.org/2000/svg" xmlns:xlink="http://www.w3.org/1999/xlink" x="0px" y="0px"
	 width="344.164px" height="344.164px" viewBox="-13.917 -24.372 344.164 344.164"
	 enable-background="new -13.917 -24.372 344.164 344.164" xml:space="preserve">
<g id="Ebene_4">
	<circle fill="#FFCC00" cx="158.165" cy="147.71" r="172.082"/>
</g>
<g id="Ebene_5">
	<circle fill="#FFFFFF" cx="158.165" cy="147.711" r="99.138"/>
</g>
<g id="Ebene_6">
	<g>
		<path d="M177.761,199.845c8.064-4.69,15.374-10.282,21.337-17.541c5.678-6.912,9.136-14.707,9.646-23.699
			c0.532-9.42-1.039-18.434-5.291-26.924c-4.466-8.92-9.774-17.255-16.896-24.324c-0.838-0.832-1.755-1.583-2.635-2.369
			c1.98,7.154,1.129,13.921-1.575,20.95c-0.163-0.625-0.255-0.871-0.29-1.124c-1.299-9.603-5.471-17.987-11.134-25.673
			c-4.887-6.629-11.216-11.808-17.665-16.827c-1.581-1.231-3.278-2.313-5.171-3.638c-0.594,21.741-7.183,40.976-20.865,57.971
			c-0.719-6.983-2.727-13.213-6.055-19.32c-0.28,1.602-0.472,2.94-0.75,4.262c-1.363,6.468-4.105,12.439-6.648,18.489
			c-2.558,6.085-5.314,12.113-6.04,18.797c-1.101,10.168,1.512,19.102,8.602,26.631c4.789,5.088,10.395,9.105,16.314,12.732"/>
		<path fill="#FFFFFF" d="M177.04,200.121c5.923-12.181,6.707-24.616,3.369-37.354c-3.322-12.68-9.733-23.338-20.781-31.099
			c0.832,7.053-0.436,13.773-1.928,20.455c-1.498,6.711-3.766,13.097-8.465,18.725c0.653-8.2,1.521-16.126-2.114-23.577
			c-0.118,0-0.237-0.001-0.355-0.003c-0.208,0.884-0.407,1.771-0.625,2.655c-1.504,6.078-4.537,11.411-7.903,16.625
			c-1.878,2.907-3.704,5.953-4.884,9.182c-2.332,6.387-1.507,12.848,0.646,19.168l5.976,13.398L177.04,200.121z"/>
		
			<line fill="none" stroke="#000000" stroke-width="10" stroke-miterlimit="10" x1="119.663" y1="205.616" x2="193.997" y2="205.616"/>
	</g>
</g>
<g id="Hilfslinien">
</g>
</svg>
