<?xml version="1.0" encoding="iso-8859-1"?>
<!-- Generator: Adobe Illustrator 19.1.0, SVG Export Plug-In . SVG Version: 6.00 Build 0)  -->
<svg version="1.1" id="Ebene_1" xmlns="http://www.w3.org/2000/svg" xmlns:xlink="http://www.w3.org/1999/xlink" x="0px" y="0px"
	 viewBox="-271.6 346.5 272.6 274.2" style="enable-background:new -271.6 346.5 272.6 274.2;" xml:space="preserve">
<path style="fill:#FFCC00;" d="M1,483.6c0,75.7-61,137.1-136.3,137.1s-136.3-61.4-136.3-137.1s61-137.1,136.3-137.1
	C-60.1,346.5,1,407.9,1,483.6L1,483.6z"/>
<path style="fill:#181716;" d="M-152.9,518.4c0,7.1-5.8,12.9-12.9,12.9c-7.1,0-12.9-5.8-12.9-12.9c0-7.1,5.8-12.9,12.9-12.9
	C-158.7,505.5-152.9,511.3-152.9,518.4L-152.9,518.4L-152.9,518.4z M-159.4,518.4c0-3.5-2.9-6.4-6.4-6.4c-3.6,0-6.4,2.9-6.4,6.4
	s2.9,6.4,6.4,6.4C-162.2,524.8-159.4,521.9-159.4,518.4L-159.4,518.4L-159.4,518.4z M-176.9,505.5h-28.8c-1.1,0-2.1,0.9-2.1,2.1v6.3
	c0,1.1,0.9,2.1,2.1,2.1h23.1C-182,511.8-179.9,508.1-176.9,505.5L-176.9,505.5L-176.9,505.5z M-85.6,518.4c0,7.1-5.8,12.9-12.9,12.9
	s-12.9-5.8-12.9-12.9c0-7.1,5.8-12.9,12.9-12.9C-91.4,505.5-85.6,511.3-85.6,518.4L-85.6,518.4L-85.6,518.4z M-92.1,518.4
	c0-3.5-2.9-6.4-6.4-6.4c-3.6,0-6.4,2.9-6.4,6.4s2.9,6.4,6.4,6.4C-94.9,524.8-92.1,521.9-92.1,518.4L-92.1,518.4L-92.1,518.4z
	 M-62.9,507.6v6.3c0,1.1-0.9,2.1-2.1,2.1h-16.7c-1.2-8.2-8.3-14.5-16.8-14.5s-15.6,6.3-16.8,14.5H-149c-0.6-4.1-2.7-7.8-5.7-10.4h32
	v-59.1c0-2.3,1.9-4.1,4.1-4.1h19.5c5.5,0,10.6,2.7,13.7,7.3l12.6,18.6c1.8,2.7,2.8,6,2.8,9.3v28.1h5
	C-63.8,505.5-62.9,506.4-62.9,507.6L-62.9,507.6L-62.9,507.6z M-83.9,468.6L-94,454.3c-0.4-0.5-1-0.9-1.7-0.9h-15.6
	c-1.1,0-2.1,0.9-2.1,2.1v14.3c0,1.1,0.9,2.1,2.1,2.1h25.8C-83.9,471.9-82.9,470-83.9,468.6L-83.9,468.6L-83.9,468.6z"/>
<path style="fill:#181716;" d="M-202.7,497.2v-61.6c0-3.4,2.8-6.2,6.2-6.2h61.6c3.4,0,6.2,2.8,6.2,6.2v61.6c0,1.1-0.9,2.1-2.1,2.1
	h-69.9C-201.7,499.3-202.7,498.4-202.7,497.2L-202.7,497.2L-202.7,497.2z"/>
<path style="fill:#181716;" d="M-202.7,497.2v-61.6c0-3.4,2.8-6.2,6.2-6.2h61.6c3.4,0,6.2,2.8,6.2,6.2v61.6c0,1.1-0.9,2.1-2.1,2.1
	h-69.9C-201.7,499.3-202.7,498.4-202.7,497.2L-202.7,497.2L-202.7,497.2z"/>
<line style="fill:none;" x1="-202.6" y1="463.7" x2="-128.6" y2="463.7"/>
<g>
	<g>
		<g>
			<path style="fill:#FFFFFF;" d="M-136.367,462.65h-12.371v-3.826h12.371V462.65z M-161.236,462.65h-12.371v-3.826h12.371V462.65z
				 M-185.978,462.65h-12.371v-3.826h12.371V462.65z"/>
		</g>
	</g>
</g>
<path style="fill:#FFFFFF;" d="M-200.7,499.399c-0.993,0-2.1-0.903-2.1-2.199v-29.5h74.2v29.5c0,1.213-0.987,2.199-2.2,2.199H-200.7
	z"/>
</svg>
